# xmcd
#
# Track frame offsets:
#	150
#	22422
#	42903
#	78709
#	104666
#	119574
#	141621
#	164768
#	190775
#	213431
#	238856
#	257021
#	279149
#
# Disc length: 4000 seconds
#
# Revision: 2946660371
# Processed by: cddbd v1.5.2PL0 Copyright (c) Steve Scherf et al.
# Submitted via: EZCDAudioConverter 8.0.2.1
#
DISCID=ce0f9e0d
DTITLE=Minh Thuận - Người Phương Xa
DYEAR=2002
DGENRE=World Pop
TTITLE0=Minh Thuận - Tình ơi sao vội quên
TTITLE1=Minh Thuận - Gặp nhau trong đêm
TTITLE2=Minh Thuận - Có một chuyện tình
TTITLE3=Minh Thuận - Người Phương Xa
TTITLE4=Minh Thuận - Vì sao em đi
TTITLE5=Minh Thuận - Khi tình yêu đến
TTITLE6=Minh Thuận - Cho em từng ngày
TTITLE7=Minh Thuận - Lời nguyện cầu trong đêm
TTITLE8=Minh Thuận - Đôi lòng cô quạnh
TTITLE9=Minh Thuận - Trái tim mong manh
TTITLE10=Minh Thuận, Cẩm Ly - Mộng mơ tình yêu
TTITLE11=Minh Thuận - Cho một người đã xa
TTITLE12=Minh Thuận - Khúc hát bạn bè
EXTD=
EXTT0=
EXTT1=
EXTT2=
EXTT3=
EXTT4=
EXTT5=
EXTT6=
EXTT7=
EXTT8=
EXTT9=
EXTT10=
EXTT11=
EXTT12=
PLAYORDER=
